<?xml version="1.0" standalone="no"?>
<!DOCTYPE svg PUBLIC "-//W3C//DTD SVG 20010904//EN"
 "http://www.w3.org/TR/2001/REC-SVG-20010904/DTD/svg10.dtd">
<svg version="1.0" xmlns="http://www.w3.org/2000/svg"
 width="512.000000pt" height="512.000000pt" viewBox="0 0 512.000000 512.000000"
 preserveAspectRatio="xMidYMid meet">
<metadata>
Created by potrace 1.14, written by Peter Selinger 2001-2017
</metadata>
<g transform="translate(0.000000,512.000000) scale(0.100000,-0.100000)"
fill="#000000" stroke="none">
<path d="M1855 4609 c-374 -281 -692 -520 -708 -531 l-27 -20 2 219 3 218 55
3 c45 2 59 7 78 28 20 23 22 35 22 133 0 92 -3 112 -19 132 l-19 24 -434 3
c-534 3 -488 18 -488 -157 0 -155 8 -164 128 -163 l32 0 0 -461 -1 -462 -57
-42 c-153 -111 -366 -274 -374 -285 -4 -7 -8 -26 -8 -41 0 -23 23 -52 123
-152 69 -69 134 -126 149 -130 16 -4 38 -1 56 9 21 11 57 15 124 15 56 -1 83
-4 68 -9 -152 -44 -251 -186 -236 -339 12 -119 79 -212 190 -264 l59 -28 -62
-29 c-70 -34 -133 -95 -163 -160 -16 -34 -21 -66 -22 -130 -1 -75 3 -91 28
-140 16 -30 47 -72 69 -93 38 -36 112 -77 138 -77 20 0 -9 -27 -37 -34 -39
-10 -119 -72 -147 -114 -40 -62 -56 -119 -53 -197 6 -132 84 -239 208 -285 16
-5 28 -13 28 -17 0 -5 -21 -18 -47 -31 -130 -62 -202 -185 -189 -321 13 -131
92 -231 216 -274 43 -15 33 -16 -226 -17 -341 0 -314 17 -314 -196 1 -117 4
-153 16 -169 15 -20 28 -20 2539 -23 l2523 -2 21 26 c19 24 21 40 21 171 0
139 -1 145 -25 168 l-24 25 -268 1 c-255 0 -266 1 -222 16 73 24 138 79 178
153 34 61 36 71 35 150 0 68 -5 95 -24 134 -37 77 -112 143 -192 170 -29 9
-21 21 30 44 71 32 115 73 153 144 31 58 34 70 33 148 0 68 -5 95 -24 134 -37
77 -112 143 -192 170 -29 9 -21 21 30 44 71 32 115 73 153 144 31 58 34 70 33
148 0 68 -5 95 -24 134 -37 77 -112 143 -192 170 -29 9 -21 21 30 44 71 32
115 73 153 144 31 58 34 70 33 148 0 68 -5 95 -24 134 -41 85 -123 152 -215
176 -21 6 0 8 67 9 72 1 107 -3 132 -16 51 -24 74 -10 209 126 146 149 150
169 42 246 -25 18 -255 189 -315 235 -30 23 -448 336 -486 365 -101 75 -621
465 -629 472 -5 5 -26 20 -45 33 -19 14 -42 30 -50 37 -8 7 -96 73 -195 147
-99 74 -184 138 -190 143 -49 40 -485 363 -502 371 -12 7 -30 12 -40 12 -10 0
-324 -230 -698 -511z"/>
</g>
</svg>
